# xmcd
#
# Track frame offsets: 
#        150
#        13058
#        24469
#        34358
#        45883
#        59654
#        73158
#        86385
#        97454
#        110529
#        124073
#        136248
#        148985
#        164695
#        177031
#        189435
#        202016
#        215235
#        229261
#        240828
#        253843
#        266520
#        279575
#        291365
#
# Disc length: 4056 seconds
#
# Revision: 1
# Processed by: cddbd v1.5.2PL0 Copyright (c) Steve Scherf et al.
# Submitted via: ExactAudioCopy v1.1
#
DISCID=790fd618
DTITLE=Various Artist - The Complete Motown Singles Volume 7 [CD36
DTITLE=)
DYEAR=2007
DGENRE=R&B
TTITLE0=Diana Ross and The Supremes - Reflections (mono)
TTITLE1=Diana Ross and The Supremes - Going Down For The Third Time (mon
TTITLE1=o)
TTITLE2=Martha and The Vandellas - Love Bug Leave My Heart Alone (mono)
TTITLE3=Martha and The Vandellas - One Way Out (mono)
TTITLE4=Barbara McNair - Steal Away Tonight (mono)
TTITLE5=Barbara McNair - For Once In My Life (mono)
TTITLE6=Brenda Holloway - You've Made Me So Very Happy (promo version)
TTITLE6=(mono)
TTITLE7=Brenda Holloway - I've Got To Find It (mono)
TTITLE8=Brenda Holloway - You've Made Me So Very Happy (commercial ver
TTITLE8=sion) (mono)
TTITLE9=Marvin Gaye and Tammi Terrell - Your Precious Love (mono)
TTITLE10=Marvin Gaye and Tammi Terrell - Hold Me, Oh My Darling (mono)
TTITLE11=The Four Tops - You Keep Running Away (mono)
TTITLE12=The Four Tops - If You Don't Want My Love (mono)
TTITLE13=Chris Clark - From Head To Toe (mono)
TTITLE14=Chris Clark - The Beginning Of The End (mono)
TTITLE15=The Messengers - Window Shopping (mono)
TTITLE16=The Messengers - California Soul (mono)
TTITLE17=Barbara Randolph - I Got A Feeling (mono)
TTITLE18=Barbara Randolph - You Got Me Hurtin' All Over (mono)
TTITLE19=Stevie Wonder - I'm Wondering (1st pressing mix) (mono)
TTITLE20=Stevie Wonder - Every Time I See You I Go Wild (mono)
TTITLE21=Stevie Wonder - I'm Wondering (2nd pressing mix) (mono)
TTITLE22=The Temptations - (Loneliness Made Me Realize) It's You That 
TTITLE22=I Need (mono)
TTITLE23=The Temptations - Don't Send Me Away (mono)
EXTD=
EXTT0=
EXTT1=
EXTT2=
EXTT3=
EXTT4=
EXTT5=
EXTT6=
EXTT7=
EXTT8=
EXTT9=
EXTT10=
EXTT11=
EXTT12=
EXTT13=
EXTT14=
EXTT15=
EXTT16=
EXTT17=
EXTT18=
EXTT19=
EXTT20=
EXTT21=
EXTT22=
EXTT23=
PLAYORDER=
